<?xml version="1.0" encoding="utf-8"?>
<!-- Generator: Adobe Illustrator 27.1.0, SVG Export Plug-In . SVG Version: 6.00 Build 0)  -->
<svg version="1.1" id="Layer_1" xmlns="http://www.w3.org/2000/svg" xmlns:xlink="http://www.w3.org/1999/xlink" x="0px" y="0px"
	 viewBox="0 0 122.9 121.7" style="enable-background:new 0 0 122.9 121.7;" xml:space="preserve">
<style type="text/css">
	.st0{fill:none;}
	.st1{fill:#8C8C8C;}
</style>
<g>
	<g>
		<polygon class="st0" points="61.5,62.3 35.8,88 87.1,88 		"/>
		<ellipse transform="matrix(0.7071 -0.7071 0.7071 0.7071 -49.2352 71.3007)" class="st0" cx="61.4" cy="95.1" rx="4.6" ry="4.6"/>
		<polygon class="st0" points="52.7,53.5 35.7,36.6 35.7,70.4 		"/>
		<polygon class="st0" points="70.2,53.5 87.2,70.5 87.2,36.5 		"/>
		<polygon class="st0" points="35.7,15.2 35.7,19 61.5,44.7 87.2,18.9 87.2,15.2 		"/>
		<polygon class="st1" points="35.7,36.6 32.7,33.5 32.7,73.5 35.7,70.4 		"/>
		<path class="st1" d="M35.8,88l-3.1,3.1V93c0,3.1,1.2,5.9,3.2,7.9s4.8,3.2,7.8,3.2h35.6c3,0,5.8-1.2,7.8-3.2s3.2-4.9,3.2-7.9v-1.9
			L87.1,88H35.8z M61.5,99.7c-2.5,0-4.6-2-4.6-4.6c0-2.6,2-4.6,4.6-4.6c2.5,0,4.6,2,4.6,4.6C66,97.6,64,99.7,61.5,99.7z"/>
		<path class="st1" d="M35.7,15.2h51.5v3.8l3-3v-2c0-3-1.2-5.8-3.2-7.8S82.3,3,79.2,3H43.7c-3.1,0-5.8,1.2-7.8,3.3
			c-2,2-3.2,4.7-3.2,7.8v1.9l3.1,3.1V15.2z"/>
		<polygon class="st1" points="87.2,70.5 90.2,73.5 90.2,33.5 87.2,36.5 		"/>
		<polygon class="st1" points="67.4,53.5 103.5,17.4 97.6,11.4 61.5,47.6 25.3,11.4 19.4,17.4 55.5,53.5 19.4,89.7 25.3,95.6 
			61.5,59.5 97.6,95.6 103.5,89.7 		"/>
	</g>
	<g>
		<path class="st1" d="M26.5,116.8c0,0.4-0.1,0.7-0.3,1s-0.5,0.5-0.8,0.6c-0.4,0.1-0.8,0.2-1.4,0.2c-0.5,0-0.9-0.1-1.3-0.2
			c-0.4-0.2-0.6-0.4-0.8-0.6c-0.2-0.2-0.3-0.5-0.3-0.7c0-0.2,0.1-0.3,0.2-0.4s0.3-0.2,0.4-0.2c0.1,0,0.3,0,0.3,0.1
			c0.1,0.1,0.2,0.2,0.2,0.3c0.1,0.3,0.3,0.4,0.5,0.6c0.2,0.1,0.5,0.2,0.8,0.2c0.3,0,0.5-0.1,0.7-0.2c0.2-0.1,0.3-0.3,0.3-0.4
			c0-0.3-0.1-0.4-0.3-0.5c-0.2-0.1-0.5-0.2-0.9-0.3c-0.5-0.1-0.9-0.2-1.2-0.4c-0.3-0.1-0.6-0.3-0.7-0.5c-0.2-0.2-0.3-0.5-0.3-0.8
			c0-0.3,0.1-0.6,0.3-0.8c0.2-0.3,0.4-0.5,0.8-0.6c0.3-0.2,0.7-0.2,1.2-0.2c0.4,0,0.7,0,1,0.1c0.3,0.1,0.5,0.2,0.7,0.3
			c0.2,0.1,0.3,0.3,0.4,0.4c0.1,0.2,0.2,0.3,0.2,0.5c0,0.2-0.1,0.3-0.2,0.4s-0.3,0.2-0.5,0.2c-0.1,0-0.3,0-0.4-0.1
			c-0.1-0.1-0.2-0.2-0.4-0.4c-0.1-0.1-0.2-0.3-0.4-0.3c-0.1-0.1-0.3-0.1-0.6-0.1c-0.3,0-0.5,0.1-0.6,0.2c-0.2,0.1-0.3,0.2-0.3,0.4
			c0,0.1,0.1,0.3,0.2,0.4c0.1,0.1,0.3,0.2,0.5,0.2c0.2,0.1,0.5,0.1,0.9,0.2c0.4,0.1,0.8,0.2,1.1,0.4c0.3,0.1,0.5,0.3,0.6,0.5
			C26.4,116.3,26.5,116.5,26.5,116.8z"/>
		<path class="st1" d="M32.4,116.9c0,0.2-0.1,0.4-0.2,0.6c-0.1,0.2-0.3,0.4-0.5,0.6c-0.2,0.2-0.5,0.3-0.8,0.4s-0.7,0.2-1.1,0.2
			c-0.9,0-1.6-0.3-2.1-0.8c-0.5-0.5-0.7-1.2-0.7-2.1c0-0.6,0.1-1.1,0.3-1.5c0.2-0.4,0.6-0.8,1-1c0.4-0.2,0.9-0.4,1.5-0.4
			c0.4,0,0.7,0.1,1,0.2c0.3,0.1,0.6,0.2,0.8,0.4c0.2,0.2,0.4,0.4,0.5,0.5c0.1,0.2,0.2,0.4,0.2,0.5c0,0.2-0.1,0.3-0.2,0.4
			c-0.1,0.1-0.3,0.2-0.5,0.2c-0.1,0-0.2,0-0.3-0.1c-0.1-0.1-0.2-0.2-0.3-0.3c-0.2-0.3-0.4-0.5-0.5-0.6c-0.2-0.1-0.4-0.2-0.7-0.2
			c-0.4,0-0.8,0.2-1,0.5c-0.3,0.3-0.4,0.8-0.4,1.3c0,0.3,0,0.5,0.1,0.7s0.2,0.4,0.3,0.6s0.3,0.3,0.5,0.4c0.2,0.1,0.4,0.1,0.6,0.1
			c0.3,0,0.5-0.1,0.7-0.2c0.2-0.1,0.4-0.3,0.5-0.6c0.1-0.2,0.2-0.3,0.3-0.4c0.1-0.1,0.2-0.1,0.4-0.1c0.2,0,0.3,0.1,0.4,0.2
			C32.4,116.6,32.4,116.8,32.4,116.9z"/>
		<path class="st1" d="M34.7,116.6v1.2c0,0.3-0.1,0.5-0.2,0.6c-0.1,0.1-0.3,0.2-0.5,0.2c-0.2,0-0.4-0.1-0.5-0.2
			c-0.1-0.1-0.2-0.4-0.2-0.6v-4c0-0.6,0.2-1,0.7-1c0.2,0,0.4,0.1,0.5,0.2c0.1,0.1,0.2,0.4,0.2,0.7c0.2-0.3,0.3-0.5,0.5-0.7
			c0.2-0.1,0.4-0.2,0.7-0.2s0.6,0.1,0.9,0.2c0.3,0.1,0.4,0.3,0.4,0.6c0,0.2-0.1,0.3-0.2,0.4c-0.1,0.1-0.2,0.2-0.4,0.2
			c-0.1,0-0.2,0-0.4-0.1c-0.2-0.1-0.4-0.1-0.5-0.1c-0.2,0-0.4,0.1-0.5,0.2c-0.1,0.1-0.2,0.3-0.3,0.5c-0.1,0.2-0.1,0.5-0.2,0.8
			C34.7,115.8,34.7,116.2,34.7,116.6z"/>
		<path class="st1" d="M41.6,116.1h-2.8c0,0.3,0.1,0.6,0.2,0.9c0.1,0.2,0.3,0.4,0.5,0.6c0.2,0.1,0.4,0.2,0.7,0.2
			c0.2,0,0.3,0,0.5-0.1c0.1,0,0.3-0.1,0.4-0.2c0.1-0.1,0.3-0.2,0.4-0.3s0.3-0.2,0.4-0.4c0.1-0.1,0.2-0.1,0.3-0.1
			c0.1,0,0.3,0,0.4,0.1c0.1,0.1,0.1,0.2,0.1,0.3c0,0.1-0.1,0.3-0.2,0.5c-0.1,0.2-0.3,0.3-0.5,0.5c-0.2,0.2-0.5,0.3-0.8,0.4
			s-0.7,0.2-1.1,0.2c-0.9,0-1.6-0.3-2.1-0.8c-0.5-0.5-0.8-1.2-0.8-2.1c0-0.4,0.1-0.8,0.2-1.2c0.1-0.4,0.3-0.7,0.5-0.9
			c0.2-0.3,0.5-0.5,0.9-0.6c0.4-0.1,0.7-0.2,1.2-0.2c0.6,0,1,0.1,1.4,0.4c0.4,0.2,0.7,0.5,0.9,0.9c0.2,0.4,0.3,0.8,0.3,1.1
			c0,0.4-0.1,0.6-0.3,0.7C42.3,116.1,42,116.1,41.6,116.1z M38.8,115.3h2.6c0-0.5-0.2-0.9-0.4-1.1c-0.2-0.2-0.5-0.4-0.9-0.4
			c-0.4,0-0.6,0.1-0.9,0.4C39,114.5,38.9,114.8,38.8,115.3z"/>
		<path class="st1" d="M47.6,116.1h-2.8c0,0.3,0.1,0.6,0.2,0.9c0.1,0.2,0.3,0.4,0.5,0.6c0.2,0.1,0.4,0.2,0.7,0.2
			c0.2,0,0.3,0,0.5-0.1c0.1,0,0.3-0.1,0.4-0.2c0.1-0.1,0.3-0.2,0.4-0.3s0.3-0.2,0.4-0.4c0.1-0.1,0.2-0.1,0.3-0.1
			c0.1,0,0.3,0,0.4,0.1c0.1,0.1,0.1,0.2,0.1,0.3c0,0.1-0.1,0.3-0.2,0.5c-0.1,0.2-0.3,0.3-0.5,0.5c-0.2,0.2-0.5,0.3-0.8,0.4
			s-0.7,0.2-1.1,0.2c-0.9,0-1.6-0.3-2.1-0.8c-0.5-0.5-0.8-1.2-0.8-2.1c0-0.4,0.1-0.8,0.2-1.2c0.1-0.4,0.3-0.7,0.5-0.9
			c0.2-0.3,0.5-0.5,0.9-0.6c0.4-0.1,0.7-0.2,1.2-0.2c0.6,0,1,0.1,1.4,0.4c0.4,0.2,0.7,0.5,0.9,0.9s0.3,0.8,0.3,1.1
			c0,0.4-0.1,0.6-0.3,0.7C48.3,116.1,48,116.1,47.6,116.1z M44.9,115.3h2.6c0-0.5-0.2-0.9-0.4-1.1c-0.2-0.2-0.5-0.4-0.9-0.4
			c-0.4,0-0.6,0.1-0.9,0.4C45,114.5,44.9,114.8,44.9,115.3z"/>
		<path class="st1" d="M51,113.7v0.2c0.3-0.3,0.5-0.6,0.8-0.7c0.3-0.2,0.6-0.2,1-0.2c0.4,0,0.7,0.1,1,0.2s0.5,0.4,0.7,0.7
			c0.1,0.2,0.2,0.4,0.2,0.6c0,0.2,0,0.5,0,0.8v2.7c0,0.3-0.1,0.5-0.2,0.6c-0.1,0.1-0.3,0.2-0.5,0.2c-0.2,0-0.4-0.1-0.5-0.2
			c-0.1-0.1-0.2-0.4-0.2-0.6v-2.4c0-0.5-0.1-0.8-0.2-1.1c-0.1-0.2-0.4-0.4-0.8-0.4c-0.3,0-0.5,0.1-0.7,0.2c-0.2,0.2-0.4,0.4-0.5,0.6
			c-0.1,0.2-0.1,0.6-0.1,1.2v1.8c0,0.3-0.1,0.5-0.2,0.6c-0.1,0.1-0.3,0.2-0.5,0.2c-0.2,0-0.4-0.1-0.5-0.2c-0.1-0.1-0.2-0.4-0.2-0.6
			v-4.1c0-0.3,0.1-0.5,0.2-0.6c0.1-0.1,0.3-0.2,0.5-0.2c0.1,0,0.2,0,0.3,0.1c0.1,0.1,0.2,0.1,0.2,0.3C51,113.4,51,113.5,51,113.7z"
			/>
		<path class="st1" d="M58.4,113h0.2v-0.9c0-0.2,0-0.4,0-0.5c0-0.1,0-0.2,0.1-0.3c0.1-0.1,0.1-0.2,0.2-0.2c0.1-0.1,0.2-0.1,0.3-0.1
			c0.2,0,0.3,0.1,0.5,0.2c0.1,0.1,0.2,0.2,0.2,0.3c0,0.1,0,0.3,0,0.6v1h0.5c0.2,0,0.4,0,0.5,0.1s0.2,0.2,0.2,0.4
			c0,0.2-0.1,0.3-0.2,0.4c-0.2,0.1-0.4,0.1-0.6,0.1H60v2.6c0,0.2,0,0.4,0,0.5c0,0.1,0.1,0.2,0.1,0.3c0.1,0.1,0.2,0.1,0.3,0.1
			c0.1,0,0.2,0,0.3,0c0.1,0,0.3,0,0.3,0c0.1,0,0.2,0,0.3,0.1c0.1,0.1,0.1,0.2,0.1,0.3c0,0.2-0.1,0.4-0.4,0.5
			c-0.3,0.1-0.6,0.2-1.1,0.2c-0.4,0-0.8-0.1-1-0.2c-0.2-0.1-0.4-0.4-0.5-0.6s-0.1-0.6-0.1-1.1V114h-0.2c-0.2,0-0.4,0-0.5-0.1
			c-0.1-0.1-0.2-0.2-0.2-0.4c0-0.1,0.1-0.3,0.2-0.4C58,113.1,58.2,113,58.4,113z"/>
		<path class="st1" d="M67.2,115.8c0,0.4-0.1,0.8-0.2,1.2c-0.1,0.4-0.3,0.7-0.6,0.9s-0.5,0.5-0.9,0.6c-0.3,0.1-0.7,0.2-1.2,0.2
			c-0.4,0-0.8-0.1-1.2-0.2c-0.3-0.1-0.6-0.3-0.9-0.6c-0.3-0.3-0.4-0.6-0.6-0.9c-0.1-0.4-0.2-0.7-0.2-1.2c0-0.4,0.1-0.8,0.2-1.2
			c0.1-0.4,0.3-0.7,0.6-0.9c0.2-0.3,0.5-0.4,0.9-0.6c0.4-0.1,0.7-0.2,1.2-0.2c0.4,0,0.8,0.1,1.2,0.2c0.4,0.1,0.7,0.3,0.9,0.6
			c0.3,0.3,0.4,0.6,0.6,0.9C67.1,115,67.2,115.3,67.2,115.8z M65.8,115.8c0-0.6-0.1-1-0.4-1.4s-0.6-0.5-1-0.5
			c-0.3,0-0.5,0.1-0.7,0.2c-0.2,0.1-0.4,0.4-0.5,0.6s-0.2,0.6-0.2,1c0,0.4,0.1,0.7,0.2,1s0.3,0.5,0.5,0.6c0.2,0.1,0.5,0.2,0.7,0.2
			c0.4,0,0.8-0.2,1-0.5S65.8,116.3,65.8,115.8z"/>
		<path class="st1" d="M73.4,115.8c0,0.4-0.1,0.8-0.2,1.2c-0.1,0.4-0.3,0.7-0.6,0.9c-0.3,0.3-0.5,0.5-0.9,0.6
			c-0.3,0.1-0.7,0.2-1.2,0.2c-0.4,0-0.8-0.1-1.2-0.2c-0.3-0.1-0.6-0.3-0.9-0.6c-0.3-0.3-0.4-0.6-0.6-0.9c-0.1-0.4-0.2-0.7-0.2-1.2
			c0-0.4,0.1-0.8,0.2-1.2c0.1-0.4,0.3-0.7,0.6-0.9c0.2-0.3,0.5-0.4,0.9-0.6c0.4-0.1,0.7-0.2,1.2-0.2c0.4,0,0.8,0.1,1.2,0.2
			c0.4,0.1,0.7,0.3,0.9,0.6c0.3,0.3,0.4,0.6,0.6,0.9C73.3,115,73.4,115.3,73.4,115.8z M71.9,115.8c0-0.6-0.1-1-0.4-1.4
			c-0.3-0.3-0.6-0.5-1-0.5c-0.3,0-0.5,0.1-0.7,0.2c-0.2,0.1-0.4,0.4-0.5,0.6c-0.1,0.3-0.2,0.6-0.2,1c0,0.4,0.1,0.7,0.2,1
			c0.1,0.3,0.3,0.5,0.5,0.6c0.2,0.1,0.5,0.2,0.7,0.2c0.4,0,0.8-0.2,1-0.5C71.8,116.8,71.9,116.3,71.9,115.8z"/>
		<path class="st1" d="M81.2,116.8c0,0.4-0.1,0.7-0.3,1c-0.2,0.3-0.5,0.5-0.8,0.6c-0.4,0.1-0.8,0.2-1.4,0.2c-0.5,0-0.9-0.1-1.3-0.2
			s-0.6-0.4-0.8-0.6c-0.2-0.2-0.3-0.5-0.3-0.7c0-0.2,0.1-0.3,0.2-0.4s0.3-0.2,0.4-0.2c0.1,0,0.3,0,0.3,0.1c0.1,0.1,0.2,0.2,0.2,0.3
			c0.1,0.3,0.3,0.4,0.5,0.6c0.2,0.1,0.5,0.2,0.8,0.2c0.3,0,0.5-0.1,0.7-0.2c0.2-0.1,0.3-0.3,0.3-0.4c0-0.3-0.1-0.4-0.3-0.5
			c-0.2-0.1-0.5-0.2-0.9-0.3c-0.5-0.1-0.9-0.2-1.2-0.4c-0.3-0.1-0.6-0.3-0.7-0.5c-0.2-0.2-0.3-0.5-0.3-0.8c0-0.3,0.1-0.6,0.3-0.8
			c0.2-0.3,0.4-0.5,0.8-0.6c0.3-0.2,0.7-0.2,1.2-0.2c0.4,0,0.7,0,1,0.1c0.3,0.1,0.5,0.2,0.7,0.3c0.2,0.1,0.3,0.3,0.4,0.4
			c0.1,0.2,0.2,0.3,0.2,0.5c0,0.2-0.1,0.3-0.2,0.4s-0.3,0.2-0.5,0.2c-0.1,0-0.3,0-0.4-0.1c-0.1-0.1-0.2-0.2-0.4-0.4
			c-0.1-0.1-0.2-0.3-0.4-0.3c-0.1-0.1-0.3-0.1-0.6-0.1c-0.3,0-0.5,0.1-0.6,0.2s-0.3,0.2-0.3,0.4c0,0.1,0.1,0.3,0.2,0.4
			s0.3,0.2,0.5,0.2s0.5,0.1,0.9,0.2c0.4,0.1,0.8,0.2,1.1,0.4c0.3,0.1,0.5,0.3,0.6,0.5C81.2,116.3,81.2,116.5,81.2,116.8z"/>
		<path class="st1" d="M86.8,115.9v1.9c0,0.3-0.1,0.5-0.2,0.7c-0.1,0.1-0.3,0.2-0.5,0.2c-0.2,0-0.4-0.1-0.5-0.2
			c-0.1-0.1-0.2-0.4-0.2-0.7v-2.3c0-0.4,0-0.6,0-0.8c0-0.2-0.1-0.4-0.2-0.5s-0.3-0.2-0.5-0.2c-0.5,0-0.8,0.2-0.9,0.5
			c-0.1,0.3-0.2,0.8-0.2,1.4v1.9c0,0.3-0.1,0.5-0.2,0.7c-0.1,0.2-0.3,0.2-0.5,0.2c-0.2,0-0.4-0.1-0.5-0.2c-0.1-0.2-0.2-0.4-0.2-0.7
			v-4.1c0-0.3,0.1-0.5,0.2-0.6c0.1-0.1,0.3-0.2,0.5-0.2c0.2,0,0.4,0.1,0.5,0.2c0.1,0.1,0.2,0.3,0.2,0.5v0.1c0.2-0.3,0.5-0.5,0.8-0.7
			c0.3-0.1,0.6-0.2,0.9-0.2c0.4,0,0.7,0.1,0.9,0.2c0.3,0.1,0.5,0.4,0.6,0.6c0.2-0.3,0.5-0.5,0.8-0.6c0.3-0.1,0.6-0.2,0.9-0.2
			c0.4,0,0.7,0.1,1,0.2c0.3,0.2,0.5,0.4,0.6,0.7c0.1,0.3,0.2,0.7,0.2,1.2v2.8c0,0.3-0.1,0.5-0.2,0.7c-0.1,0.1-0.3,0.2-0.5,0.2
			c-0.2,0-0.4-0.1-0.5-0.2c-0.1-0.2-0.2-0.4-0.2-0.7v-2.4c0-0.3,0-0.6,0-0.7c0-0.2-0.1-0.3-0.2-0.5s-0.3-0.2-0.5-0.2
			c-0.2,0-0.4,0.1-0.5,0.2s-0.3,0.3-0.4,0.4C86.9,114.8,86.8,115.3,86.8,115.9z"/>
		<path class="st1" d="M94.9,117.9c-0.3,0.3-0.7,0.5-1,0.6c-0.3,0.1-0.7,0.2-1.1,0.2c-0.4,0-0.7-0.1-1-0.2c-0.3-0.1-0.5-0.3-0.6-0.6
			c-0.1-0.2-0.2-0.5-0.2-0.8c0-0.4,0.1-0.7,0.4-1c0.2-0.3,0.6-0.5,1-0.6c0.1,0,0.3-0.1,0.7-0.1c0.4-0.1,0.7-0.1,0.9-0.2
			s0.5-0.1,0.8-0.2c0-0.4-0.1-0.7-0.2-0.8s-0.4-0.3-0.8-0.3c-0.4,0-0.6,0.1-0.8,0.2s-0.3,0.3-0.5,0.5c-0.1,0.2-0.2,0.3-0.3,0.4
			S92,115,91.8,115c-0.2,0-0.3-0.1-0.4-0.2c-0.1-0.1-0.2-0.2-0.2-0.4c0-0.3,0.1-0.5,0.3-0.7c0.2-0.2,0.5-0.4,0.8-0.6
			s0.8-0.2,1.4-0.2c0.6,0,1.1,0.1,1.5,0.2c0.4,0.1,0.6,0.4,0.8,0.7c0.1,0.3,0.2,0.7,0.2,1.3c0,0.3,0,0.6,0,0.9c0,0.2,0,0.5,0,0.8
			c0,0.3,0,0.5,0.1,0.8c0.1,0.3,0.1,0.5,0.1,0.6c0,0.1-0.1,0.3-0.2,0.4c-0.1,0.1-0.3,0.2-0.5,0.2c-0.1,0-0.3-0.1-0.4-0.2
			C95.2,118.3,95,118.1,94.9,117.9z M94.8,115.8c-0.2,0.1-0.5,0.2-0.9,0.2c-0.4,0.1-0.7,0.1-0.8,0.2c-0.2,0-0.3,0.1-0.4,0.2
			c-0.1,0.1-0.2,0.3-0.2,0.5c0,0.2,0.1,0.4,0.2,0.6c0.2,0.2,0.4,0.2,0.6,0.2c0.3,0,0.5-0.1,0.8-0.2s0.4-0.3,0.5-0.5
			c0.1-0.2,0.2-0.6,0.2-1.1V115.8z"/>
		<path class="st1" d="M97.3,117.8v-6.2c0-0.3,0.1-0.5,0.2-0.6c0.1-0.1,0.3-0.2,0.5-0.2s0.4,0.1,0.5,0.2c0.1,0.1,0.2,0.4,0.2,0.6
			v6.2c0,0.3-0.1,0.5-0.2,0.6c-0.1,0.1-0.3,0.2-0.5,0.2c-0.2,0-0.4-0.1-0.5-0.2C97.4,118.3,97.3,118.1,97.3,117.8z"/>
		<path class="st1" d="M99.9,117.8v-6.2c0-0.3,0.1-0.5,0.2-0.6c0.1-0.1,0.3-0.2,0.5-0.2s0.4,0.1,0.5,0.2c0.1,0.1,0.2,0.4,0.2,0.6
			v6.2c0,0.3-0.1,0.5-0.2,0.6c-0.1,0.1-0.3,0.2-0.5,0.2c-0.2,0-0.4-0.1-0.5-0.2C99.9,118.3,99.9,118.1,99.9,117.8z"/>
	</g>
</g>
</svg>
