<?xml version="1.0" encoding="utf-8"?>
<!-- Generator: Adobe Illustrator 27.1.0, SVG Export Plug-In . SVG Version: 6.00 Build 0)  -->
<svg version="1.1" id="Layer_1" xmlns="http://www.w3.org/2000/svg" xmlns:xlink="http://www.w3.org/1999/xlink" x="0px" y="0px"
	 viewBox="0 0 122.9 106.4" style="enable-background:new 0 0 122.9 106.4;" xml:space="preserve">
<style type="text/css">
	.st0{fill:none;stroke:#8C8C8C;stroke-width:3;stroke-linecap:round;stroke-linejoin:round;}
	.st1{fill:none;stroke:#8C8C8C;stroke-width:3;stroke-linecap:round;stroke-linejoin:round;stroke-dasharray:4.6471,6.5059;}
	.st2{fill:none;stroke:#8C8C8C;stroke-width:3;stroke-linecap:round;stroke-linejoin:round;stroke-dasharray:5.2049,7.2869;}
	
		.st3{fill-rule:evenodd;clip-rule:evenodd;fill:none;stroke:#8C8C8C;stroke-width:3;stroke-linecap:round;stroke-linejoin:round;stroke-miterlimit:10;}
	.st4{fill:#8C8C8C;}
</style>
<g>
	<g>
		<g>
			<g>
				<polyline class="st0" points="7.6,12.1 5.1,12.1 5.1,14.6 				"/>
				<line class="st1" x1="5.1" y1="21.1" x2="5.1" y2="73.6"/>
				<polyline class="st0" points="5.1,76.9 5.1,79.4 7.6,79.4 				"/>
				<line class="st2" x1="14.9" y1="79.4" x2="111.2" y2="79.4"/>
				<polyline class="st0" points="114.9,79.4 117.4,79.4 117.4,76.9 				"/>
				<line class="st1" x1="117.4" y1="70.4" x2="117.4" y2="17.9"/>
				<polyline class="st0" points="117.4,14.6 117.4,12.1 114.9,12.1 				"/>
				<line class="st2" x1="107.6" y1="12.1" x2="11.3" y2="12.1"/>
			</g>
		</g>
		<polygon class="st3" points="5.1,12.1 5.1,79.4 95.2,79.4 95.2,12.1 5.1,12.1 		"/>
		<g>
			<polyline class="st3" points="112.9,45.7 99,45.7 104.4,40.4 			"/>
			<polyline class="st3" points="112.9,45.7 99,45.7 104.4,51.1 			"/>
		</g>
	</g>
	<g>
		<path class="st4" d="M10.7,92.3v1.2c0,0.3-0.1,0.5-0.2,0.7c-0.1,0.1-0.3,0.2-0.5,0.2c-0.2,0-0.4-0.1-0.5-0.2s-0.2-0.4-0.2-0.6v-4
			c0-0.6,0.2-1,0.7-1c0.2,0,0.4,0.1,0.5,0.2c0.1,0.1,0.2,0.4,0.2,0.7c0.2-0.3,0.3-0.5,0.5-0.7s0.4-0.2,0.7-0.2
			c0.3,0,0.6,0.1,0.9,0.2c0.3,0.1,0.4,0.3,0.4,0.6c0,0.2-0.1,0.3-0.2,0.4c-0.1,0.1-0.3,0.2-0.4,0.2c-0.1,0-0.2,0-0.4-0.1
			c-0.2-0.1-0.4-0.1-0.5-0.1c-0.2,0-0.4,0.1-0.5,0.2c-0.1,0.1-0.2,0.3-0.3,0.5c-0.1,0.2-0.1,0.5-0.2,0.8S10.7,91.8,10.7,92.3z"/>
		<path class="st4" d="M17.6,91.8h-2.8c0,0.3,0.1,0.6,0.2,0.9s0.3,0.4,0.5,0.6s0.4,0.2,0.7,0.2c0.2,0,0.3,0,0.5-0.1
			c0.1,0,0.3-0.1,0.4-0.2c0.1-0.1,0.3-0.2,0.4-0.3c0.1-0.1,0.3-0.2,0.4-0.4c0.1-0.1,0.2-0.1,0.3-0.1c0.1,0,0.3,0,0.4,0.1
			c0.1,0.1,0.1,0.2,0.1,0.3c0,0.1-0.1,0.3-0.2,0.5c-0.1,0.2-0.3,0.3-0.5,0.5s-0.5,0.3-0.8,0.4c-0.3,0.1-0.7,0.2-1.1,0.2
			c-0.9,0-1.6-0.3-2.1-0.8c-0.5-0.5-0.8-1.2-0.8-2.1c0-0.4,0.1-0.8,0.2-1.2c0.1-0.4,0.3-0.7,0.5-0.9s0.5-0.5,0.9-0.6
			c0.4-0.1,0.7-0.2,1.2-0.2c0.6,0,1,0.1,1.4,0.4c0.4,0.2,0.7,0.5,0.9,0.9s0.3,0.8,0.3,1.1c0,0.4-0.1,0.6-0.3,0.7
			C18.3,91.7,18,91.8,17.6,91.8z M14.8,91h2.6c0-0.5-0.2-0.9-0.4-1.1c-0.2-0.2-0.5-0.4-0.9-0.4c-0.4,0-0.6,0.1-0.9,0.4
			C15,90.1,14.9,90.5,14.8,91z"/>
		<path class="st4" d="M23.6,93.5v-0.1c-0.2,0.2-0.4,0.4-0.6,0.5c-0.2,0.1-0.4,0.2-0.6,0.3s-0.5,0.1-0.7,0.1c-0.3,0-0.7-0.1-0.9-0.2
			c-0.3-0.1-0.5-0.4-0.8-0.6c-0.2-0.3-0.4-0.6-0.5-0.9c-0.1-0.4-0.2-0.8-0.2-1.2c0-0.9,0.2-1.6,0.7-2.1c0.4-0.5,1-0.7,1.7-0.7
			c0.4,0,0.8,0.1,1,0.2c0.3,0.1,0.6,0.4,0.8,0.7v-2.1c0-0.3,0.1-0.5,0.2-0.7c0.1-0.1,0.3-0.2,0.5-0.2s0.4,0.1,0.5,0.2
			c0.1,0.1,0.2,0.3,0.2,0.6v6.3c0,0.3-0.1,0.5-0.2,0.6s-0.3,0.2-0.5,0.2c-0.2,0-0.4-0.1-0.5-0.2S23.6,93.8,23.6,93.5z M20.8,91.4
			c0,0.4,0.1,0.7,0.2,1c0.1,0.3,0.3,0.5,0.5,0.6c0.2,0.1,0.4,0.2,0.7,0.2c0.3,0,0.5-0.1,0.7-0.2c0.2-0.1,0.4-0.3,0.5-0.6
			c0.1-0.3,0.2-0.6,0.2-1c0-0.4-0.1-0.7-0.2-1c-0.1-0.3-0.3-0.5-0.5-0.6c-0.2-0.1-0.4-0.2-0.7-0.2c-0.3,0-0.5,0.1-0.7,0.2
			c-0.2,0.1-0.4,0.4-0.5,0.6C20.8,90.7,20.8,91.1,20.8,91.4z"/>
		<path class="st4" d="M29.8,93.5v-0.2c-0.2,0.2-0.4,0.4-0.5,0.5c-0.2,0.1-0.4,0.3-0.6,0.3s-0.5,0.1-0.8,0.1c-0.3,0-0.7-0.1-0.9-0.2
			c-0.3-0.1-0.5-0.3-0.6-0.6c-0.2-0.3-0.3-0.7-0.3-1.3v-2.8c0-0.3,0.1-0.5,0.2-0.6c0.1-0.1,0.3-0.2,0.5-0.2c0.2,0,0.4,0.1,0.5,0.2
			s0.2,0.4,0.2,0.6v2.3c0,0.3,0,0.6,0.1,0.8c0.1,0.2,0.2,0.4,0.3,0.5c0.1,0.1,0.3,0.2,0.6,0.2c0.2,0,0.5-0.1,0.7-0.2
			c0.2-0.1,0.4-0.3,0.5-0.6c0.1-0.2,0.1-0.6,0.1-1.3v-1.7c0-0.3,0.1-0.5,0.2-0.6s0.3-0.2,0.5-0.2c0.2,0,0.4,0.1,0.5,0.2
			c0.1,0.1,0.2,0.4,0.2,0.6v4.1c0,0.3-0.1,0.5-0.2,0.6s-0.3,0.2-0.5,0.2s-0.4-0.1-0.5-0.2S29.8,93.8,29.8,93.5z"/>
		<path class="st4" d="M37.4,92.6c0,0.2-0.1,0.4-0.2,0.6c-0.1,0.2-0.3,0.4-0.5,0.6c-0.2,0.2-0.5,0.3-0.8,0.4
			c-0.3,0.1-0.7,0.2-1.1,0.2c-0.9,0-1.6-0.3-2.1-0.8C32.2,93,32,92.3,32,91.5c0-0.6,0.1-1.1,0.3-1.6c0.2-0.4,0.6-0.8,1-1
			c0.4-0.2,0.9-0.4,1.5-0.4c0.4,0,0.7,0.1,1,0.2c0.3,0.1,0.6,0.2,0.8,0.4s0.4,0.4,0.5,0.5c0.1,0.2,0.2,0.4,0.2,0.5
			c0,0.2-0.1,0.3-0.2,0.4s-0.3,0.2-0.5,0.2c-0.1,0-0.2,0-0.3-0.1c-0.1-0.1-0.2-0.2-0.3-0.3c-0.2-0.3-0.4-0.5-0.5-0.6
			s-0.4-0.2-0.7-0.2c-0.4,0-0.8,0.2-1,0.5c-0.3,0.3-0.4,0.8-0.4,1.4c0,0.3,0,0.5,0.1,0.7c0.1,0.2,0.2,0.4,0.3,0.6s0.3,0.3,0.5,0.4
			c0.2,0.1,0.4,0.1,0.6,0.1c0.3,0,0.5-0.1,0.7-0.2c0.2-0.1,0.4-0.3,0.5-0.6c0.1-0.2,0.2-0.3,0.3-0.4c0.1-0.1,0.2-0.1,0.4-0.1
			c0.2,0,0.3,0.1,0.4,0.2C37.3,92.3,37.4,92.4,37.4,92.6z"/>
		<path class="st4" d="M42.2,91.8h-2.8c0,0.3,0.1,0.6,0.2,0.9s0.3,0.4,0.5,0.6c0.2,0.1,0.4,0.2,0.7,0.2c0.2,0,0.3,0,0.5-0.1
			s0.3-0.1,0.4-0.2c0.1-0.1,0.3-0.2,0.4-0.3c0.1-0.1,0.3-0.2,0.4-0.4c0.1-0.1,0.2-0.1,0.3-0.1c0.1,0,0.3,0,0.4,0.1
			c0.1,0.1,0.1,0.2,0.1,0.3c0,0.1-0.1,0.3-0.2,0.5c-0.1,0.2-0.3,0.3-0.5,0.5s-0.5,0.3-0.8,0.4s-0.7,0.2-1.1,0.2
			c-0.9,0-1.6-0.3-2.1-0.8c-0.5-0.5-0.8-1.2-0.8-2.1c0-0.4,0.1-0.8,0.2-1.2c0.1-0.4,0.3-0.7,0.5-0.9s0.5-0.5,0.9-0.6
			c0.4-0.1,0.7-0.2,1.2-0.2c0.6,0,1,0.1,1.4,0.4c0.4,0.2,0.7,0.5,0.9,0.9s0.3,0.8,0.3,1.1c0,0.4-0.1,0.6-0.3,0.7
			C42.8,91.7,42.6,91.8,42.2,91.8z M39.4,91H42c0-0.5-0.2-0.9-0.4-1.1c-0.2-0.2-0.5-0.4-0.9-0.4c-0.4,0-0.6,0.1-0.9,0.4
			C39.6,90.1,39.4,90.5,39.4,91z"/>
		<path class="st4" d="M47.6,89.4l0.9,3.2l0.8-3c0.1-0.3,0.2-0.5,0.2-0.6c0-0.1,0.1-0.2,0.2-0.3s0.3-0.2,0.5-0.2
			c0.2,0,0.4,0.1,0.5,0.2c0.1,0.1,0.2,0.2,0.3,0.3c0,0.1,0.1,0.3,0.2,0.6l0.8,3l0.9-3.2c0.1-0.2,0.1-0.4,0.2-0.5
			c0-0.1,0.1-0.2,0.2-0.3c0.1-0.1,0.2-0.1,0.4-0.1c0.2,0,0.3,0.1,0.4,0.2s0.2,0.3,0.2,0.4c0,0.1-0.1,0.4-0.2,0.7l-1.2,3.4
			c-0.1,0.3-0.2,0.5-0.2,0.6s-0.1,0.2-0.3,0.3c-0.1,0.1-0.3,0.2-0.5,0.2c-0.2,0-0.4-0.1-0.5-0.2s-0.2-0.2-0.3-0.4s-0.1-0.4-0.2-0.6
			l-0.8-2.8l-0.8,2.8c-0.1,0.4-0.2,0.7-0.3,0.9s-0.3,0.3-0.6,0.3c-0.2,0-0.3,0-0.4-0.1c-0.1-0.1-0.2-0.1-0.3-0.3
			c-0.1-0.1-0.1-0.2-0.2-0.4s-0.1-0.3-0.1-0.4l-1.2-3.4c-0.1-0.3-0.2-0.5-0.2-0.7c0-0.2,0.1-0.3,0.2-0.4s0.3-0.2,0.4-0.2
			c0.2,0,0.4,0.1,0.5,0.2C47.4,88.9,47.5,89.1,47.6,89.4z"/>
		<path class="st4" d="M55.8,87.9c-0.2,0-0.4-0.1-0.5-0.2s-0.2-0.3-0.2-0.5c0-0.2,0.1-0.4,0.2-0.5c0.1-0.1,0.3-0.2,0.5-0.2
			c0.2,0,0.3,0.1,0.5,0.2s0.2,0.3,0.2,0.5c0,0.2-0.1,0.4-0.2,0.5C56.1,87.8,56,87.9,55.8,87.9z M56.5,89.3v4.1
			c0,0.3-0.1,0.5-0.2,0.6s-0.3,0.2-0.5,0.2s-0.4-0.1-0.5-0.2s-0.2-0.4-0.2-0.6v-4.1c0-0.3,0.1-0.5,0.2-0.6s0.3-0.2,0.5-0.2
			s0.4,0.1,0.5,0.2S56.5,89.1,56.5,89.3z"/>
		<path class="st4" d="M58.9,89.3v0.2c0.3-0.3,0.5-0.6,0.8-0.7c0.3-0.2,0.6-0.2,1-0.2c0.4,0,0.7,0.1,1,0.2c0.3,0.2,0.5,0.4,0.7,0.7
			c0.1,0.2,0.2,0.4,0.2,0.6c0,0.2,0,0.5,0,0.8v2.7c0,0.3-0.1,0.5-0.2,0.6s-0.3,0.2-0.5,0.2c-0.2,0-0.4-0.1-0.5-0.2s-0.2-0.4-0.2-0.6
			v-2.4c0-0.5-0.1-0.8-0.2-1.1c-0.1-0.2-0.4-0.4-0.8-0.4c-0.3,0-0.5,0.1-0.7,0.2c-0.2,0.2-0.4,0.4-0.5,0.6c-0.1,0.2-0.1,0.6-0.1,1.2
			v1.8c0,0.3-0.1,0.5-0.2,0.7c-0.1,0.1-0.3,0.2-0.5,0.2c-0.2,0-0.4-0.1-0.5-0.2s-0.2-0.4-0.2-0.6v-4.1c0-0.3,0.1-0.5,0.2-0.6
			c0.1-0.1,0.3-0.2,0.5-0.2c0.1,0,0.2,0,0.3,0.1c0.1,0.1,0.2,0.1,0.2,0.3C58.9,89,58.9,89.1,58.9,89.3z"/>
		<path class="st4" d="M67.7,93.5v-0.1c-0.2,0.2-0.4,0.4-0.6,0.5c-0.2,0.1-0.4,0.2-0.6,0.3s-0.5,0.1-0.7,0.1c-0.3,0-0.7-0.1-0.9-0.2
			c-0.3-0.1-0.5-0.4-0.8-0.6c-0.2-0.3-0.4-0.6-0.5-0.9c-0.1-0.4-0.2-0.8-0.2-1.2c0-0.9,0.2-1.6,0.7-2.1c0.4-0.5,1-0.7,1.7-0.7
			c0.4,0,0.8,0.1,1,0.2c0.3,0.1,0.6,0.4,0.8,0.7v-2.1c0-0.3,0.1-0.5,0.2-0.7c0.1-0.1,0.3-0.2,0.5-0.2s0.4,0.1,0.5,0.2
			c0.1,0.1,0.2,0.3,0.2,0.6v6.3c0,0.3-0.1,0.5-0.2,0.6s-0.3,0.2-0.5,0.2c-0.2,0-0.4-0.1-0.5-0.2C67.8,94,67.7,93.8,67.7,93.5z
			 M64.9,91.4c0,0.4,0.1,0.7,0.2,1c0.1,0.3,0.3,0.5,0.5,0.6c0.2,0.1,0.4,0.2,0.7,0.2c0.3,0,0.5-0.1,0.7-0.2c0.2-0.1,0.4-0.3,0.5-0.6
			c0.1-0.3,0.2-0.6,0.2-1c0-0.4-0.1-0.7-0.2-1c-0.1-0.3-0.3-0.5-0.5-0.6c-0.2-0.1-0.4-0.2-0.7-0.2c-0.3,0-0.5,0.1-0.7,0.2
			c-0.2,0.1-0.4,0.4-0.5,0.6C65,90.7,64.9,91.1,64.9,91.4z"/>
		<path class="st4" d="M75.6,91.4c0,0.4-0.1,0.8-0.2,1.2c-0.1,0.4-0.3,0.7-0.6,0.9s-0.6,0.5-0.9,0.6c-0.3,0.1-0.7,0.2-1.2,0.2
			c-0.4,0-0.8-0.1-1.2-0.2s-0.6-0.3-0.9-0.6c-0.3-0.3-0.4-0.6-0.6-0.9c-0.1-0.4-0.2-0.7-0.2-1.2c0-0.4,0.1-0.8,0.2-1.2
			s0.3-0.7,0.6-0.9s0.5-0.5,0.9-0.6c0.4-0.1,0.7-0.2,1.2-0.2c0.4,0,0.8,0.1,1.2,0.2c0.4,0.1,0.7,0.3,0.9,0.6s0.4,0.6,0.6,0.9
			C75.5,90.6,75.6,91,75.6,91.4z M74.1,91.4c0-0.6-0.1-1-0.4-1.4c-0.3-0.3-0.6-0.5-1-0.5c-0.3,0-0.5,0.1-0.7,0.2
			c-0.2,0.1-0.4,0.4-0.5,0.6c-0.1,0.3-0.2,0.6-0.2,1c0,0.4,0.1,0.7,0.2,1c0.1,0.3,0.3,0.5,0.5,0.6c0.2,0.1,0.5,0.2,0.7,0.2
			c0.4,0,0.8-0.2,1-0.5C74,92.5,74.1,92,74.1,91.4z"/>
		<path class="st4" d="M77.2,89.4l0.9,3.2l0.8-3c0.1-0.3,0.2-0.5,0.2-0.6c0-0.1,0.1-0.2,0.2-0.3c0.1-0.1,0.3-0.2,0.5-0.2
			c0.2,0,0.4,0.1,0.5,0.2s0.2,0.2,0.3,0.3c0,0.1,0.1,0.3,0.2,0.6l0.8,3l0.9-3.2c0.1-0.2,0.1-0.4,0.2-0.5s0.1-0.2,0.2-0.3
			s0.2-0.1,0.4-0.1c0.2,0,0.3,0.1,0.4,0.2S84,89,84,89.1c0,0.1-0.1,0.4-0.2,0.7l-1.2,3.4c-0.1,0.3-0.2,0.5-0.2,0.6
			c-0.1,0.1-0.1,0.2-0.3,0.3c-0.1,0.1-0.3,0.2-0.5,0.2c-0.2,0-0.4-0.1-0.5-0.2c-0.1-0.1-0.2-0.2-0.3-0.4c-0.1-0.2-0.1-0.4-0.2-0.6
			l-0.8-2.8l-0.8,2.8c-0.1,0.4-0.2,0.7-0.3,0.9s-0.3,0.3-0.6,0.3c-0.2,0-0.3,0-0.4-0.1c-0.1-0.1-0.2-0.1-0.3-0.3
			c-0.1-0.1-0.1-0.2-0.2-0.4c-0.1-0.2-0.1-0.3-0.1-0.4L76,89.8c-0.1-0.3-0.2-0.5-0.2-0.7c0-0.2,0.1-0.3,0.2-0.4s0.3-0.2,0.4-0.2
			c0.2,0,0.4,0.1,0.5,0.2C77,88.9,77.1,89.1,77.2,89.4z"/>
		<path class="st4" d="M88,89.4l0.9,3.2l0.8-3c0.1-0.3,0.2-0.5,0.2-0.6c0-0.1,0.1-0.2,0.2-0.3c0.1-0.1,0.3-0.2,0.5-0.2
			c0.2,0,0.4,0.1,0.5,0.2c0.1,0.1,0.2,0.2,0.3,0.3c0,0.1,0.1,0.3,0.2,0.6l0.8,3l0.9-3.2c0.1-0.2,0.1-0.4,0.2-0.5
			c0-0.1,0.1-0.2,0.2-0.3c0.1-0.1,0.2-0.1,0.4-0.1s0.3,0.1,0.4,0.2s0.2,0.3,0.2,0.4c0,0.1-0.1,0.4-0.2,0.7l-1.2,3.4
			c-0.1,0.3-0.2,0.5-0.2,0.6c-0.1,0.1-0.1,0.2-0.3,0.3c-0.1,0.1-0.3,0.2-0.5,0.2c-0.2,0-0.4-0.1-0.5-0.2c-0.1-0.1-0.2-0.2-0.3-0.4
			c-0.1-0.2-0.1-0.4-0.2-0.6l-0.8-2.8L90,93.2c-0.1,0.4-0.2,0.7-0.3,0.9s-0.3,0.3-0.6,0.3c-0.2,0-0.3,0-0.4-0.1
			c-0.1-0.1-0.2-0.1-0.3-0.3c-0.1-0.1-0.1-0.2-0.2-0.4c-0.1-0.2-0.1-0.3-0.1-0.4l-1.2-3.4c-0.1-0.3-0.2-0.5-0.2-0.7
			c0-0.2,0.1-0.3,0.2-0.4s0.3-0.2,0.4-0.2c0.2,0,0.4,0.1,0.5,0.2C87.8,88.9,87.9,89.1,88,89.4z"/>
		<path class="st4" d="M96.2,87.9c-0.2,0-0.4-0.1-0.5-0.2s-0.2-0.3-0.2-0.5c0-0.2,0.1-0.4,0.2-0.5c0.1-0.1,0.3-0.2,0.5-0.2
			c0.2,0,0.3,0.1,0.5,0.2c0.1,0.1,0.2,0.3,0.2,0.5c0,0.2-0.1,0.4-0.2,0.5C96.6,87.8,96.4,87.9,96.2,87.9z M96.9,89.3v4.1
			c0,0.3-0.1,0.5-0.2,0.6s-0.3,0.2-0.5,0.2s-0.4-0.1-0.5-0.2c-0.1-0.1-0.2-0.4-0.2-0.6v-4.1c0-0.3,0.1-0.5,0.2-0.6
			c0.1-0.1,0.3-0.2,0.5-0.2s0.4,0.1,0.5,0.2S96.9,89.1,96.9,89.3z"/>
		<path class="st4" d="M102,93.5v-0.1c-0.2,0.2-0.4,0.4-0.6,0.5c-0.2,0.1-0.4,0.2-0.6,0.3c-0.2,0.1-0.5,0.1-0.7,0.1
			c-0.3,0-0.7-0.1-0.9-0.2c-0.3-0.1-0.5-0.4-0.8-0.6c-0.2-0.3-0.4-0.6-0.5-0.9c-0.1-0.4-0.2-0.8-0.2-1.2c0-0.9,0.2-1.6,0.7-2.1
			s1-0.7,1.7-0.7c0.4,0,0.8,0.1,1,0.2c0.3,0.1,0.6,0.4,0.8,0.7v-2.1c0-0.3,0.1-0.5,0.2-0.7c0.1-0.1,0.3-0.2,0.5-0.2
			c0.2,0,0.4,0.1,0.5,0.2c0.1,0.1,0.2,0.3,0.2,0.6v6.3c0,0.3-0.1,0.5-0.2,0.6s-0.3,0.2-0.5,0.2c-0.2,0-0.4-0.1-0.5-0.2
			C102.1,94,102,93.8,102,93.5z M99.2,91.4c0,0.4,0.1,0.7,0.2,1c0.1,0.3,0.3,0.5,0.5,0.6c0.2,0.1,0.4,0.2,0.7,0.2
			c0.3,0,0.5-0.1,0.7-0.2c0.2-0.1,0.4-0.3,0.5-0.6c0.1-0.3,0.2-0.6,0.2-1c0-0.4-0.1-0.7-0.2-1c-0.1-0.3-0.3-0.5-0.5-0.6
			c-0.2-0.1-0.4-0.2-0.7-0.2c-0.3,0-0.5,0.1-0.7,0.2c-0.2,0.1-0.4,0.4-0.5,0.6S99.2,91.1,99.2,91.4z"/>
		<path class="st4" d="M104.6,88.7h0.2v-0.9c0-0.2,0-0.4,0-0.5c0-0.1,0-0.2,0.1-0.3c0.1-0.1,0.1-0.2,0.2-0.2s0.2-0.1,0.4-0.1
			c0.2,0,0.3,0.1,0.5,0.2c0.1,0.1,0.2,0.2,0.2,0.3c0,0.1,0,0.3,0,0.6v1h0.5c0.2,0,0.4,0,0.5,0.1c0.1,0.1,0.2,0.2,0.2,0.4
			c0,0.2-0.1,0.3-0.2,0.4c-0.2,0.1-0.4,0.1-0.7,0.1h-0.3v2.6c0,0.2,0,0.4,0,0.5s0.1,0.2,0.1,0.3s0.2,0.1,0.3,0.1c0.1,0,0.2,0,0.3,0
			c0.1,0,0.3,0,0.3,0c0.1,0,0.2,0,0.3,0.1s0.1,0.2,0.1,0.3c0,0.2-0.1,0.4-0.4,0.5c-0.3,0.1-0.6,0.2-1.1,0.2c-0.4,0-0.8-0.1-1-0.2
			s-0.4-0.4-0.5-0.6s-0.1-0.6-0.1-1.1v-2.7h-0.2c-0.2,0-0.4,0-0.5-0.1s-0.2-0.2-0.2-0.4s0.1-0.3,0.2-0.4
			C104.2,88.7,104.4,88.7,104.6,88.7z"/>
		<path class="st4" d="M109.6,87.3v2.1c0.2-0.2,0.4-0.4,0.5-0.5s0.4-0.2,0.6-0.3c0.2-0.1,0.4-0.1,0.7-0.1c0.4,0,0.7,0.1,1,0.2
			c0.3,0.2,0.5,0.4,0.7,0.7c0.1,0.2,0.2,0.4,0.2,0.6c0,0.2,0.1,0.5,0.1,0.7v2.7c0,0.3-0.1,0.5-0.2,0.6c-0.1,0.1-0.3,0.2-0.5,0.2
			c-0.5,0-0.7-0.3-0.7-0.9v-2.4c0-0.5-0.1-0.8-0.2-1.1c-0.1-0.2-0.4-0.4-0.8-0.4c-0.3,0-0.5,0.1-0.7,0.2c-0.2,0.1-0.4,0.3-0.5,0.6
			c-0.1,0.2-0.1,0.6-0.1,1.1v1.9c0,0.3-0.1,0.5-0.2,0.6c-0.1,0.1-0.3,0.2-0.5,0.2c-0.5,0-0.7-0.3-0.7-0.9v-6.2
			c0-0.3,0.1-0.5,0.2-0.7c0.1-0.1,0.3-0.2,0.5-0.2c0.2,0,0.4,0.1,0.5,0.2C109.5,86.8,109.6,87,109.6,87.3z"/>
	</g>
</g>
</svg>
